<svg xmlns="http://www.w3.org/2000/svg" xmlns:v="https://svgstorm.com"
viewBox = "0 0 161 165"
width="161"
height="165">
<g fill="None" fill-opacity="0.0" stroke="#ADB5BD" stroke-opacity="1.00" stroke-width="0.3"><path d="
M 0.00 2.00 
C 53.17 -0.33 107.42 1.67 161.00 1.00
L 161.00 0.00
L 0.00 0.00
L 0.00 2.00 Z"/>
</g>
<g fill="None" fill-opacity="0.0" stroke="#99ADC8" stroke-opacity="1.00" stroke-width="0.3"><path d="
M 0.00 2.00 
L 0.00 164.00
C 53.67 164.00 107.33 164.00 161.00 164.00
L 161.00 163.00
C 107.67 163.00 54.33 163.00 1.00 163.00
C 1.00 109.33 1.00 55.67 1.00 2.00
C 54.33 2.00 107.67 2.00 161.00 2.00
L 161.00 1.00
C 107.42 1.67 53.17 -0.33 0.00 2.00 Z"/>
</g>
<g fill="None" fill-opacity="0.0" stroke="#3A86FD" stroke-opacity="1.00" stroke-width="0.3"><path d="
M 161.00 163.00 
L 161.00 2.00
C 107.67 2.00 54.33 2.00 1.00 2.00
C 1.00 55.67 1.00 109.33 1.00 163.00
C 54.33 163.00 107.67 163.00 161.00 163.00
M 105.00 58.00 
C 105.64 53.83 108.55 49.18 106.00 45.00
C 99.91 47.92 99.11 57.41 92.00 58.00
C 92.21 51.90 100.56 47.24 98.00 41.00
C 90.77 44.24 87.07 53.91 79.00 55.00
C 78.62 44.77 92.92 42.33 95.00 34.00
C 91.43 36.00 69.61 43.80 74.26 36.26 C 78.91 28.71 92.98 32.96 97.25 23.25 C 101.52 13.53 79.30 18.22 82.00 6.00
C 91.01 8.67 104.56 8.17 112.25 12.75 C 119.93 17.34 128.66 28.40 120.69 35.69 C 112.73 42.99 111.34 51.85 105.00 58.00
M 49.00 91.00 
C 47.34 89.69 44.70 88.10 44.00 86.00
C 41.12 77.36 44.08 66.67 41.00 58.00
C 50.71 57.83 48.99 66.28 52.31 72.69 C 55.62 79.11 64.16 66.82 64.77 63.77 C 65.39 60.72 71.00 45.50 74.75 50.26 C 78.49 55.02 67.54 65.82 69.00 71.00
C 74.57 67.57 75.92 65.42 80.75 59.75 C 85.59 54.08 91.97 55.25 86.70 61.70 C 81.43 68.14 78.14 67.81 76.00 75.00
C 82.74 75.46 86.61 68.36 93.00 68.00
C 92.75 75.71 81.44 75.89 80.00 83.00
C 84.25 83.30 88.24 82.60 92.00 81.00
C 93.76 86.89 81.86 85.80 78.31 89.31 C 74.75 92.81 70.36 99.35 64.77 99.77 C 59.18 100.19 53.55 93.30 49.00 91.00
M 97.00 108.00 
C 100.22 109.86 96.81 115.83 93.33 113.67 C 89.85 111.50 94.43 106.52 97.00 108.00
M 38.00 117.00 
C 41.13 117.97 47.58 113.73 49.75 119.25 C 51.92 124.77 50.70 129.18 51.00 135.00
C 44.75 136.68 45.33 129.73 46.00 125.00 C 46.67 120.27 39.03 117.70 38.00 123.00
C 37.06 125.65 39.88 133.63 37.00 135.00
C 36.51 135.23 33.49 135.23 33.00 135.00
C 31.10 134.10 31.19 125.95 32.00 123.00 C 32.81 120.05 29.34 112.69 32.78 109.78 C 36.22 106.87 39.14 112.83 38.00 117.00
M 21.00 130.00 
C 22.55 129.30 25.79 123.93 28.00 128.00
C 30.36 132.33 18.07 136.75 14.00 135.00 C 9.93 133.25 4.28 128.89 5.00 123.00 C 5.73 117.11 8.07 112.53 14.08 111.08 C 20.08 109.62 27.48 112.58 28.00 119.00
C 21.98 118.58 15.31 111.66 11.08 119.08 C 6.86 126.51 14.50 133.12 21.00 130.00
M 112.00 116.00 
C 113.43 120.01 109.83 119.45 108.00 121.00
C 108.15 125.56 106.47 131.45 112.00 132.00
C 110.15 138.75 101.58 133.52 103.00 127.00 C 104.42 120.48 99.35 117.17 103.00 111.00
C 109.81 108.22 105.88 117.80 112.00 116.00
M 74.00 116.00 
C 74.00 122.33 74.00 128.67 74.00 135.00
C 67.45 132.61 55.44 140.02 54.02 126.98 C 52.61 113.93 67.04 116.88 74.00 116.00
M 89.00 116.00 
C 90.76 117.24 90.08 119.71 89.00 121.00
C 87.64 122.62 85.44 121.32 84.00 124.00
C 83.03 126.73 85.81 133.38 83.00 135.00
C 82.00 135.58 80.08 134.56 79.00 135.00
C 79.00 128.67 79.00 122.33 79.00 116.00
C 83.74 116.02 84.53 118.04 89.00 116.00
M 97.00 135.00 
C 96.51 135.23 93.49 135.23 93.00 135.00
C 91.01 134.05 91.08 116.91 93.00 116.00
C 93.49 115.77 96.51 115.77 97.00 116.00
C 98.99 116.95 98.92 134.09 97.00 135.00
M 134.00 116.00 
C 134.00 122.33 134.00 128.67 134.00 135.00
C 127.80 132.61 115.58 139.73 114.03 126.97 C 112.47 114.22 127.19 116.67 134.00 116.00
M 144.00 123.00 
C 142.95 125.87 145.94 133.30 143.00 135.00
C 142.00 135.58 140.08 134.56 139.00 135.00
C 139.00 128.67 139.00 122.33 139.00 116.00
C 144.44 117.85 149.39 113.81 154.25 117.75 C 159.10 121.70 156.27 129.38 157.00 135.00
C 147.47 137.95 155.80 111.42 144.00 123.00 Z"/>
</g>
<g fill="None" fill-opacity="0.0" stroke="#00C29C" stroke-opacity="1.00" stroke-width="0.3"><path d="
M 105.00 58.00 
C 111.34 51.85 112.73 42.99 120.69 35.69 C 128.66 28.40 119.93 17.34 112.25 12.75 C 104.56 8.17 91.01 8.67 82.00 6.00
C 79.30 18.22 101.52 13.53 97.25 23.25 C 92.98 32.96 78.91 28.71 74.26 36.26 C 69.61 43.80 91.43 36.00 95.00 34.00
C 92.92 42.33 78.62 44.77 79.00 55.00
C 87.07 53.91 90.77 44.24 98.00 41.00
C 100.56 47.24 92.21 51.90 92.00 58.00
C 99.11 57.41 99.91 47.92 106.00 45.00
C 108.55 49.18 105.64 53.83 105.00 58.00 Z"/>
</g>
<g fill="None" fill-opacity="0.0" stroke="#F8C01A" stroke-opacity="1.00" stroke-width="0.3"><path d="
M 44.00 86.00 
C 44.35 86.86 48.21 90.27 49.00 91.00
C 53.55 93.30 59.18 100.19 64.77 99.77 C 70.36 99.35 74.75 92.81 78.31 89.31 C 81.86 85.80 93.76 86.89 92.00 81.00
C 88.24 82.60 84.25 83.30 80.00 83.00
C 81.44 75.89 92.75 75.71 93.00 68.00
C 86.61 68.36 82.74 75.46 76.00 75.00
C 78.14 67.81 81.43 68.14 86.70 61.70 C 91.97 55.25 85.59 54.08 80.75 59.75 C 75.92 65.42 74.57 67.57 69.00 71.00
C 67.54 65.82 78.49 55.02 74.75 50.26 C 71.00 45.50 65.39 60.72 64.77 63.77 C 64.16 66.82 55.62 79.11 52.31 72.69 C 48.99 66.28 50.71 57.83 41.00 58.00
C 44.08 66.67 41.12 77.36 44.00 86.00 Z"/>
</g>
<g fill="None" fill-opacity="0.0" stroke="#A1A579" stroke-opacity="1.00" stroke-width="0.3"><path d="
M 49.00 91.00 
C 48.21 90.27 44.35 86.86 44.00 86.00
C 44.70 88.10 47.34 89.69 49.00 91.00 Z"/>
</g>
<g fill="None" fill-opacity="0.0" stroke="#E1BA44" stroke-opacity="1.00" stroke-width="0.3"><path d="
M 97.00 108.00 
C 94.43 106.52 89.85 111.50 93.33 113.67 C 96.81 115.83 100.22 109.86 97.00 108.00 Z"/>
</g>
<g fill="None" fill-opacity="0.0" stroke="#8A9E95" stroke-opacity="1.00" stroke-width="0.3"><path d="
M 33.00 135.00 
C 33.00 126.67 33.00 118.33 33.00 110.00
C 39.37 107.15 35.45 117.92 38.00 117.00
C 39.14 112.83 36.22 106.87 32.78 109.78 C 29.34 112.69 32.81 120.05 32.00 123.00 C 31.19 125.95 31.10 134.10 33.00 135.00 Z"/>
</g>
<g fill="None" fill-opacity="0.0" stroke="#F8C118" stroke-opacity="1.00" stroke-width="0.3"><path d="
M 33.00 135.00 
C 33.49 135.23 36.51 135.23 37.00 135.00
C 37.25 130.96 36.23 126.29 38.00 123.00
C 39.03 117.70 46.67 120.27 46.00 125.00 C 45.33 129.73 44.75 136.68 51.00 135.00
C 50.70 129.18 51.92 124.77 49.75 119.25 C 47.58 113.73 41.13 117.97 38.00 117.00
C 35.45 117.92 39.37 107.15 33.00 110.00
C 33.00 118.33 33.00 126.67 33.00 135.00 Z"/>
</g>
<g fill="None" fill-opacity="0.0" stroke="#F1BF29" stroke-opacity="1.00" stroke-width="0.3"><path d="
M 28.00 128.00 
C 25.02 126.69 23.29 129.30 21.00 130.00
C 14.50 133.12 6.86 126.51 11.08 119.08 C 15.31 111.66 21.98 118.58 28.00 119.00
C 27.48 112.58 20.08 109.62 14.08 111.08 C 8.07 112.53 5.73 117.11 5.00 123.00 C 4.28 128.89 9.93 133.25 14.00 135.00 C 18.07 136.75 30.36 132.33 28.00 128.00 Z"/>
</g>
<g fill="None" fill-opacity="0.0" stroke="#F5C019" stroke-opacity="1.00" stroke-width="0.3"><path d="
M 112.00 116.00 
C 105.88 117.80 109.81 108.22 103.00 111.00
C 99.35 117.17 104.42 120.48 103.00 127.00 C 101.58 133.52 110.15 138.75 112.00 132.00
C 106.47 131.45 108.15 125.56 108.00 121.00
C 109.83 119.45 113.43 120.01 112.00 116.00 Z"/>
</g>
<g fill="None" fill-opacity="0.0" stroke="#F3BF24" stroke-opacity="1.00" stroke-width="0.3"><path d="
M 74.00 116.00 
C 67.04 116.88 52.61 113.93 54.02 126.98 C 55.44 140.02 67.45 132.61 74.00 135.00
C 74.00 128.67 74.00 122.33 74.00 116.00
M 66.00 120.00 
C 71.76 121.69 68.72 133.46 62.33 130.67 C 55.93 127.87 59.86 118.20 66.00 120.00 Z"/>
</g>
<g fill="None" fill-opacity="0.0" stroke="#F8C119" stroke-opacity="1.00" stroke-width="0.3"><path d="
M 83.00 135.00 
C 83.14 131.24 82.37 127.02 84.00 124.00
C 85.44 121.32 87.64 122.62 89.00 121.00
C 89.00 119.33 89.00 117.67 89.00 116.00
C 84.53 118.04 83.74 116.02 79.00 116.00
C 79.00 122.33 79.00 128.67 79.00 135.00
C 80.08 134.56 82.00 135.58 83.00 135.00 Z"/>
</g>
<g fill="None" fill-opacity="0.0" stroke="#889E99" stroke-opacity="1.00" stroke-width="0.3"><path d="
M 89.00 121.00 
C 90.08 119.71 90.76 117.24 89.00 116.00
C 89.00 117.67 89.00 119.33 89.00 121.00 Z"/>
</g>
<g fill="None" fill-opacity="0.0" stroke="#899D96" stroke-opacity="1.00" stroke-width="0.3"><path d="
M 93.00 135.00 
C 93.00 128.67 93.00 122.33 93.00 116.00
C 91.08 116.91 91.01 134.05 93.00 135.00 Z"/>
</g>
<g fill="None" fill-opacity="0.0" stroke="#FDC202" stroke-opacity="1.00" stroke-width="0.3"><path d="
M 93.00 135.00 
C 93.49 135.23 96.51 135.23 97.00 135.00
C 97.00 128.67 97.00 122.33 97.00 116.00
C 96.51 115.77 93.49 115.77 93.00 116.00
C 93.00 122.33 93.00 128.67 93.00 135.00 Z"/>
</g>
<g fill="None" fill-opacity="0.0" stroke="#91A08D" stroke-opacity="1.00" stroke-width="0.3"><path d="
M 97.00 135.00 
C 98.92 134.09 98.99 116.95 97.00 116.00
C 97.00 122.33 97.00 128.67 97.00 135.00 Z"/>
</g>
<g fill="None" fill-opacity="0.0" stroke="#F4BF22" stroke-opacity="1.00" stroke-width="0.3"><path d="
M 134.00 116.00 
C 127.19 116.67 112.47 114.22 114.03 126.97 C 115.58 139.73 127.80 132.61 134.00 135.00
C 134.00 128.67 134.00 122.33 134.00 116.00
M 126.00 120.00 
C 132.05 121.78 128.70 133.79 122.33 130.67 C 115.96 127.55 120.29 118.32 126.00 120.00 Z"/>
</g>
<g fill="None" fill-opacity="0.0" stroke="#F7C01B" stroke-opacity="1.00" stroke-width="0.3"><path d="
M 143.00 135.00 
C 143.27 130.97 142.19 126.27 144.00 123.00
C 155.80 111.42 147.47 137.95 157.00 135.00
C 156.27 129.38 159.10 121.70 154.25 117.75 C 149.39 113.81 144.44 117.85 139.00 116.00
C 139.00 122.33 139.00 128.67 139.00 135.00
C 140.08 134.56 142.00 135.58 143.00 135.00 Z"/>
</g>
<g fill="None" fill-opacity="0.0" stroke="#4188F6" stroke-opacity="1.00" stroke-width="0.3"><path d="
M 66.00 120.00 
C 59.86 118.20 55.93 127.87 62.33 130.67 C 68.72 133.46 71.76 121.69 66.00 120.00 Z"/>
</g>
<g fill="None" fill-opacity="0.0" stroke="#4188F6" stroke-opacity="1.00" stroke-width="0.3"><path d="
M 126.00 120.00 
C 120.29 118.32 115.96 127.55 122.33 130.67 C 128.70 133.79 132.05 121.78 126.00 120.00 Z"/>
</g>
<g fill="None" fill-opacity="0.0" stroke="#93A18B" stroke-opacity="1.00" stroke-width="0.3"><path d="
M 37.00 135.00 
C 39.88 133.63 37.06 125.65 38.00 123.00
C 36.23 126.29 37.25 130.96 37.00 135.00 Z"/>
</g>
<g fill="None" fill-opacity="0.0" stroke="#B8AD5A" stroke-opacity="1.00" stroke-width="0.3"><path d="
M 143.00 135.00 
C 145.94 133.30 142.95 125.87 144.00 123.00
C 142.19 126.27 143.27 130.97 143.00 135.00 Z"/>
</g>
<g fill="None" fill-opacity="0.0" stroke="#ACA86B" stroke-opacity="1.00" stroke-width="0.3"><path d="
M 83.00 135.00 
C 85.81 133.38 83.03 126.73 84.00 124.00
C 82.37 127.02 83.14 131.24 83.00 135.00 Z"/>
</g>
<g fill="None" fill-opacity="0.0" stroke="#92A08C" stroke-opacity="1.00" stroke-width="0.3"><path d="
M 21.00 130.00 
C 23.29 129.30 25.02 126.69 28.00 128.00
C 25.79 123.93 22.55 129.30 21.00 130.00 Z"/>
</g>
<g fill="None" fill-opacity="0.0" stroke="#ADB5BD" stroke-opacity="1.00" stroke-width="0.3"><path d="
M 0.00 165.00 
L 161.00 165.00
L 161.00 164.00
C 107.33 164.00 53.67 164.00 0.00 164.00
L 0.00 165.00 Z"/>
</g>
<g fill="#ADB5BD" fill-opacity="1.00" stroke="None">
<path d="
M 0.00 2.00 
C 53.17 -0.33 107.42 1.67 161.00 1.00
L 161.00 0.00
L 0.00 0.00
L 0.00 2.00 Z"/>
</g>
<g fill="#99ADC8" fill-opacity="1.00" stroke="None">
<path d="
M 0.00 2.00 
L 0.00 164.00
C 53.67 164.00 107.33 164.00 161.00 164.00
L 161.00 163.00
C 107.67 163.00 54.33 163.00 1.00 163.00
C 1.00 109.33 1.00 55.67 1.00 2.00
C 54.33 2.00 107.67 2.00 161.00 2.00
L 161.00 1.00
C 107.42 1.67 53.17 -0.33 0.00 2.00 Z"/>
</g>
<g fill="#3A86FD" fill-opacity="1.00" stroke="None">
<path d="
M 161.00 163.00 
L 161.00 2.00
C 107.67 2.00 54.33 2.00 1.00 2.00
C 1.00 55.67 1.00 109.33 1.00 163.00
C 54.33 163.00 107.67 163.00 161.00 163.00
M 105.00 58.00 
C 105.64 53.83 108.55 49.18 106.00 45.00
C 99.91 47.92 99.11 57.41 92.00 58.00
C 92.21 51.90 100.56 47.24 98.00 41.00
C 90.77 44.24 87.07 53.91 79.00 55.00
C 78.62 44.77 92.92 42.33 95.00 34.00
C 91.43 36.00 69.61 43.80 74.26 36.26 C 78.91 28.71 92.98 32.96 97.25 23.25 C 101.52 13.53 79.30 18.22 82.00 6.00
C 91.01 8.67 104.56 8.17 112.25 12.75 C 119.93 17.34 128.66 28.40 120.69 35.69 C 112.73 42.99 111.34 51.85 105.00 58.00
M 49.00 91.00 
C 47.34 89.69 44.70 88.10 44.00 86.00
C 41.12 77.36 44.08 66.67 41.00 58.00
C 50.71 57.83 48.99 66.28 52.31 72.69 C 55.62 79.11 64.16 66.82 64.77 63.77 C 65.39 60.72 71.00 45.50 74.75 50.26 C 78.49 55.02 67.54 65.82 69.00 71.00
C 74.57 67.57 75.92 65.42 80.75 59.75 C 85.59 54.08 91.97 55.25 86.70 61.70 C 81.43 68.14 78.14 67.81 76.00 75.00
C 82.74 75.46 86.61 68.36 93.00 68.00
C 92.75 75.71 81.44 75.89 80.00 83.00
C 84.25 83.30 88.24 82.60 92.00 81.00
C 93.76 86.89 81.86 85.80 78.31 89.31 C 74.75 92.81 70.36 99.35 64.77 99.77 C 59.18 100.19 53.55 93.30 49.00 91.00
M 97.00 108.00 
C 100.22 109.86 96.81 115.83 93.33 113.67 C 89.85 111.50 94.43 106.52 97.00 108.00
M 38.00 117.00 
C 41.13 117.97 47.58 113.73 49.75 119.25 C 51.92 124.77 50.70 129.18 51.00 135.00
C 44.75 136.68 45.33 129.73 46.00 125.00 C 46.67 120.27 39.03 117.70 38.00 123.00
C 37.06 125.65 39.88 133.63 37.00 135.00
C 36.51 135.23 33.49 135.23 33.00 135.00
C 31.10 134.10 31.19 125.95 32.00 123.00 C 32.81 120.05 29.34 112.69 32.78 109.78 C 36.22 106.87 39.14 112.83 38.00 117.00
M 21.00 130.00 
C 22.55 129.30 25.79 123.93 28.00 128.00
C 30.36 132.33 18.07 136.75 14.00 135.00 C 9.93 133.25 4.28 128.89 5.00 123.00 C 5.73 117.11 8.07 112.53 14.08 111.08 C 20.08 109.62 27.48 112.58 28.00 119.00
C 21.98 118.58 15.31 111.66 11.08 119.08 C 6.86 126.51 14.50 133.12 21.00 130.00
M 112.00 116.00 
C 113.43 120.01 109.83 119.45 108.00 121.00
C 108.15 125.56 106.47 131.45 112.00 132.00
C 110.15 138.75 101.58 133.52 103.00 127.00 C 104.42 120.48 99.35 117.17 103.00 111.00
C 109.81 108.22 105.88 117.80 112.00 116.00
M 74.00 116.00 
C 74.00 122.33 74.00 128.67 74.00 135.00
C 67.45 132.61 55.44 140.02 54.02 126.98 C 52.61 113.93 67.04 116.88 74.00 116.00
M 89.00 116.00 
C 90.76 117.24 90.08 119.71 89.00 121.00
C 87.64 122.62 85.44 121.32 84.00 124.00
C 83.03 126.73 85.81 133.38 83.00 135.00
C 82.00 135.58 80.08 134.56 79.00 135.00
C 79.00 128.67 79.00 122.33 79.00 116.00
C 83.74 116.02 84.53 118.04 89.00 116.00
M 97.00 135.00 
C 96.51 135.23 93.49 135.23 93.00 135.00
C 91.01 134.05 91.08 116.91 93.00 116.00
C 93.49 115.77 96.51 115.77 97.00 116.00
C 98.99 116.95 98.92 134.09 97.00 135.00
M 134.00 116.00 
C 134.00 122.33 134.00 128.67 134.00 135.00
C 127.80 132.61 115.58 139.73 114.03 126.97 C 112.47 114.22 127.19 116.67 134.00 116.00
M 144.00 123.00 
C 142.95 125.87 145.94 133.30 143.00 135.00
C 142.00 135.58 140.08 134.56 139.00 135.00
C 139.00 128.67 139.00 122.33 139.00 116.00
C 144.44 117.85 149.39 113.81 154.25 117.75 C 159.10 121.70 156.27 129.38 157.00 135.00
C 147.47 137.95 155.80 111.42 144.00 123.00 Z"/>
</g>
<g fill="#00C29C" fill-opacity="1.00" stroke="None">
<path d="
M 105.00 58.00 
C 111.34 51.85 112.73 42.99 120.69 35.69 C 128.66 28.40 119.93 17.34 112.25 12.75 C 104.56 8.17 91.01 8.67 82.00 6.00
C 79.30 18.22 101.52 13.53 97.25 23.25 C 92.98 32.96 78.91 28.71 74.26 36.26 C 69.61 43.80 91.43 36.00 95.00 34.00
C 92.92 42.33 78.62 44.77 79.00 55.00
C 87.07 53.91 90.77 44.24 98.00 41.00
C 100.56 47.24 92.21 51.90 92.00 58.00
C 99.11 57.41 99.91 47.92 106.00 45.00
C 108.55 49.18 105.64 53.83 105.00 58.00 Z"/>
</g>
<g fill="#F8C01A" fill-opacity="1.00" stroke="None">
<path d="
M 44.00 86.00 
C 44.35 86.86 48.21 90.27 49.00 91.00
C 53.55 93.30 59.18 100.19 64.77 99.77 C 70.36 99.35 74.75 92.81 78.31 89.31 C 81.86 85.80 93.76 86.89 92.00 81.00
C 88.24 82.60 84.25 83.30 80.00 83.00
C 81.44 75.89 92.75 75.71 93.00 68.00
C 86.61 68.36 82.74 75.46 76.00 75.00
C 78.14 67.81 81.43 68.14 86.70 61.70 C 91.97 55.25 85.59 54.08 80.75 59.75 C 75.92 65.42 74.57 67.57 69.00 71.00
C 67.54 65.82 78.49 55.02 74.75 50.26 C 71.00 45.50 65.39 60.72 64.77 63.77 C 64.16 66.82 55.62 79.11 52.31 72.69 C 48.99 66.28 50.71 57.83 41.00 58.00
C 44.08 66.67 41.12 77.36 44.00 86.00 Z"/>
</g>
<g fill="#A1A579" fill-opacity="1.00" stroke="None">
<path d="
M 49.00 91.00 
C 48.21 90.27 44.35 86.86 44.00 86.00
C 44.70 88.10 47.34 89.69 49.00 91.00 Z"/>
</g>
<g fill="#E1BA44" fill-opacity="1.00" stroke="None">
<path d="
M 97.00 108.00 
C 94.43 106.52 89.85 111.50 93.33 113.67 C 96.81 115.83 100.22 109.86 97.00 108.00 Z"/>
</g>
<g fill="#8A9E95" fill-opacity="1.00" stroke="None">
<path d="
M 33.00 135.00 
C 33.00 126.67 33.00 118.33 33.00 110.00
C 39.37 107.15 35.45 117.92 38.00 117.00
C 39.14 112.83 36.22 106.87 32.78 109.78 C 29.34 112.69 32.81 120.05 32.00 123.00 C 31.19 125.95 31.10 134.10 33.00 135.00 Z"/>
</g>
<g fill="#F8C118" fill-opacity="1.00" stroke="None">
<path d="
M 33.00 135.00 
C 33.49 135.23 36.51 135.23 37.00 135.00
C 37.25 130.96 36.23 126.29 38.00 123.00
C 39.03 117.70 46.67 120.27 46.00 125.00 C 45.33 129.73 44.75 136.68 51.00 135.00
C 50.70 129.18 51.92 124.77 49.75 119.25 C 47.58 113.73 41.13 117.97 38.00 117.00
C 35.45 117.92 39.37 107.15 33.00 110.00
C 33.00 118.33 33.00 126.67 33.00 135.00 Z"/>
</g>
<g fill="#F1BF29" fill-opacity="1.00" stroke="None">
<path d="
M 28.00 128.00 
C 25.02 126.69 23.29 129.30 21.00 130.00
C 14.50 133.12 6.86 126.51 11.08 119.08 C 15.31 111.66 21.98 118.58 28.00 119.00
C 27.48 112.58 20.08 109.62 14.08 111.08 C 8.07 112.53 5.73 117.11 5.00 123.00 C 4.28 128.89 9.93 133.25 14.00 135.00 C 18.07 136.75 30.36 132.33 28.00 128.00 Z"/>
</g>
<g fill="#F5C019" fill-opacity="1.00" stroke="None">
<path d="
M 112.00 116.00 
C 105.88 117.80 109.81 108.22 103.00 111.00
C 99.35 117.17 104.42 120.48 103.00 127.00 C 101.58 133.52 110.15 138.75 112.00 132.00
C 106.47 131.45 108.15 125.56 108.00 121.00
C 109.83 119.45 113.43 120.01 112.00 116.00 Z"/>
</g>
<g fill="#F3BF24" fill-opacity="1.00" stroke="None">
<path d="
M 74.00 116.00 
C 67.04 116.88 52.61 113.93 54.02 126.98 C 55.44 140.02 67.45 132.61 74.00 135.00
C 74.00 128.67 74.00 122.33 74.00 116.00
M 66.00 120.00 
C 71.76 121.69 68.72 133.46 62.33 130.67 C 55.93 127.87 59.86 118.20 66.00 120.00 Z"/>
</g>
<g fill="#F8C119" fill-opacity="1.00" stroke="None">
<path d="
M 83.00 135.00 
C 83.14 131.24 82.37 127.02 84.00 124.00
C 85.44 121.32 87.64 122.62 89.00 121.00
C 89.00 119.33 89.00 117.67 89.00 116.00
C 84.53 118.04 83.74 116.02 79.00 116.00
C 79.00 122.33 79.00 128.67 79.00 135.00
C 80.08 134.56 82.00 135.58 83.00 135.00 Z"/>
</g>
<g fill="#889E99" fill-opacity="1.00" stroke="None">
<path d="
M 89.00 121.00 
C 90.08 119.71 90.76 117.24 89.00 116.00
C 89.00 117.67 89.00 119.33 89.00 121.00 Z"/>
</g>
<g fill="#899D96" fill-opacity="1.00" stroke="None">
<path d="
M 93.00 135.00 
C 93.00 128.67 93.00 122.33 93.00 116.00
C 91.08 116.91 91.01 134.05 93.00 135.00 Z"/>
</g>
<g fill="#FDC202" fill-opacity="1.00" stroke="None">
<path d="
M 93.00 135.00 
C 93.49 135.23 96.51 135.23 97.00 135.00
C 97.00 128.67 97.00 122.33 97.00 116.00
C 96.51 115.77 93.49 115.77 93.00 116.00
C 93.00 122.33 93.00 128.67 93.00 135.00 Z"/>
</g>
<g fill="#91A08D" fill-opacity="1.00" stroke="None">
<path d="
M 97.00 135.00 
C 98.92 134.09 98.99 116.95 97.00 116.00
C 97.00 122.33 97.00 128.67 97.00 135.00 Z"/>
</g>
<g fill="#F4BF22" fill-opacity="1.00" stroke="None">
<path d="
M 134.00 116.00 
C 127.19 116.67 112.47 114.22 114.03 126.97 C 115.58 139.73 127.80 132.61 134.00 135.00
C 134.00 128.67 134.00 122.33 134.00 116.00
M 126.00 120.00 
C 132.05 121.78 128.70 133.79 122.33 130.67 C 115.96 127.55 120.29 118.32 126.00 120.00 Z"/>
</g>
<g fill="#F7C01B" fill-opacity="1.00" stroke="None">
<path d="
M 143.00 135.00 
C 143.27 130.97 142.19 126.27 144.00 123.00
C 155.80 111.42 147.47 137.95 157.00 135.00
C 156.27 129.38 159.10 121.70 154.25 117.75 C 149.39 113.81 144.44 117.85 139.00 116.00
C 139.00 122.33 139.00 128.67 139.00 135.00
C 140.08 134.56 142.00 135.58 143.00 135.00 Z"/>
</g>
<g fill="#4188F6" fill-opacity="1.00" stroke="None">
<path d="
M 66.00 120.00 
C 59.86 118.20 55.93 127.87 62.33 130.67 C 68.72 133.46 71.76 121.69 66.00 120.00 Z"/>
</g>
<g fill="#4188F6" fill-opacity="1.00" stroke="None">
<path d="
M 126.00 120.00 
C 120.29 118.32 115.96 127.55 122.33 130.67 C 128.70 133.79 132.05 121.78 126.00 120.00 Z"/>
</g>
<g fill="#93A18B" fill-opacity="1.00" stroke="None">
<path d="
M 37.00 135.00 
C 39.88 133.63 37.06 125.65 38.00 123.00
C 36.23 126.29 37.25 130.96 37.00 135.00 Z"/>
</g>
<g fill="#B8AD5A" fill-opacity="1.00" stroke="None">
<path d="
M 143.00 135.00 
C 145.94 133.30 142.95 125.87 144.00 123.00
C 142.19 126.27 143.27 130.97 143.00 135.00 Z"/>
</g>
<g fill="#ACA86B" fill-opacity="1.00" stroke="None">
<path d="
M 83.00 135.00 
C 85.81 133.38 83.03 126.73 84.00 124.00
C 82.37 127.02 83.14 131.24 83.00 135.00 Z"/>
</g>
<g fill="#92A08C" fill-opacity="1.00" stroke="None">
<path d="
M 21.00 130.00 
C 23.29 129.30 25.02 126.69 28.00 128.00
C 25.79 123.93 22.55 129.30 21.00 130.00 Z"/>
</g>
<g fill="#ADB5BD" fill-opacity="1.00" stroke="None">
<path d="
M 0.00 165.00 
L 161.00 165.00
L 161.00 164.00
C 107.33 164.00 53.67 164.00 0.00 164.00
L 0.00 165.00 Z"/>
</g>
</svg>